# xmcd CD database file
#
# Track frame offsets:
#	183
#	38198
#	58123
#	88508
#	107133
#	133570
#	164175
#	188670
#	217223
#	254233
#
# Disc length: 3931 seconds
#
# Revision: 3
# Processed by: cddbd v1.5.2PL0 Copyright (c) Steve Scherf et al.
# Submitted via: CDex 1.51
#
DISCID=9c0f590a
DTITLE=Steve Lacy - Vol. 260 - Steve Lacy
DYEAR=158
DGENRE=Jazz
TTITLE0=Easy To Love
TTITLE1=Day Dream
TTITLE2=Let's Cool One
TTITLE3=Rockin' In Rhythm
TTITLE4=Something To Love For
TTITLE5=Alone Together
TTITLE6=Work
TTITLE7=Skippy
TTITLE8=Monk's Mood
TTITLE9=Bye-Ya
EXTD=YEAR: 158
EXTT0=
EXTT1=
EXTT2=
EXTT3=
EXTT4=
EXTT5=
EXTT6=
EXTT7=
EXTT8=
EXTT9=
PLAYORDER=
